<svg width="230" height="170" viewBox="0 0 230 170" xmlns="http://www.w3.org/2000/svg">
    <g fill="#1C1F2B" fill-rule="evenodd">
        <path d="M51.31 0H27.586v20.784c0 11.19-6.069 19.718-20.414 19.718H0V63.15h25.38v70.345C25.38 156.677 39.723 170 62.344 170c8.827 0 15.448-1.599 17.655-2.398v-21.317c-2.207.533-6.897 1.066-10.207 1.066-13.517 0-18.483-5.862-18.483-17.586V63.15H80V40.502H51.31V0zM180 40.798c-1.31-.266-4.72-.798-8.127-.798-12.847 0-28.577 4.785-37.753 24.458V42.127H110V170h24.644v-64.07c0-28.18 13.895-39.345 34.607-39.345 3.408 0 7.079.266 10.749.797V40.798z"/>
        <path d="M205 110c-13.806 0-25 11.418-25 25.5s11.194 25.5 25 25.5h1.47v9S230 157.874 230 135.5c0-14.082-11.194-25.5-25-25.5z" fill-rule="nonzero"/>
    </g>
</svg>
